<?xml version="1.0" standalone="no"?><svg xmlns="http://www.w3.org/2000/svg" viewBox="0 0 1440 320"><path fill="#64bcf4" fill-opacity="0.5" d="M0,96L34.3,85.3C68.6,75,137,53,206,80C274.3,107,343,181,411,213.3C480,245,549,235,617,197.3C685.7,160,754,96,823,69.3C891.4,43,960,53,1029,101.3C1097.1,149,1166,235,1234,240C1302.9,245,1371,171,1406,133.3L1440,96L1440,320L1405.7,320C1371.4,320,1303,320,1234,320C1165.7,320,1097,320,1029,320C960,320,891,320,823,320C754.3,320,686,320,617,320C548.6,320,480,320,411,320C342.9,320,274,320,206,320C137.1,320,69,320,34,320L0,320Z"></path></svg>