<?xml version="1.0" standalone="no"?><svg xmlns="http://www.w3.org/2000/svg" viewBox="0 0 1440 320"><path fill="#64bcf4" fill-opacity="0.5" d="M0,96L34.3,85.3C68.6,75,137,53,206,80C274.3,107,343,181,411,213.3C480,245,549,235,617,197.3C685.7,160,754,96,823,69.3C891.4,43,960,53,1029,101.3C1097.1,149,1166,235,1234,240C1302.9,245,1371,171,1406,133.3L1440,96L1440,0L1405.7,0C1371.4,0,1303,0,1234,0C1165.7,0,1097,0,1029,0C960,0,891,0,823,0C754.3,0,686,0,617,0C548.6,0,480,0,411,0C342.9,0,274,0,206,0C137.1,0,69,0,34,0L0,0Z"></path></svg>